<svg width="24" height="24" viewBox="0 0 25 25" fill="none" xmlns="http://www.w3.org/2000/svg">
<g clip-path="url(#clip0)">
<path d="M16.1089 0.144387C15.9943 0.0236513 15.8371 -0.0488281 15.6742 -0.0488281H5.92175C4.12216 -0.0488281 2.63672 1.4307 2.63672 3.2301V21.6721C2.63672 23.4717 4.12216 24.9512 5.92175 24.9512H19.1584C20.958 24.9512 22.4434 23.4717 22.4434 21.6721V7.0284C22.4434 6.87143 22.3709 6.72056 22.2683 6.60573L16.1089 0.144387ZM16.284 2.08283L20.4085 6.41252H17.7273C16.9302 6.41252 16.284 5.77241 16.284 4.97533V2.08283ZM19.1584 23.7435H5.92175C4.7926 23.7435 3.84445 22.8075 3.84445 21.6721V3.2301C3.84445 2.10095 4.7865 1.15891 5.92175 1.15891H15.0763V4.97533C15.0763 6.44265 16.26 7.62025 17.7273 7.62025H21.2357V21.6721C21.2357 22.8075 20.2936 23.7435 19.1584 23.7435Z" fill="white"/>
<path d="M17.5098 19.5769H7.57018C7.23811 19.5769 6.96631 19.8485 6.96631 20.1808C6.96631 20.5128 7.23811 20.7846 7.57018 20.7846H17.5159C17.8479 20.7846 18.1197 20.5128 18.1197 20.1808C18.1197 19.8485 17.8479 19.5769 17.5098 19.5769Z" fill="white"/>
<path d="M12.0993 17.4089C12.2141 17.5296 12.3711 17.6021 12.5401 17.6021C12.7092 17.6021 12.8662 17.5296 12.9808 17.4089L16.5196 13.6106C16.749 13.3689 16.7309 12.9825 16.4894 12.7591C16.2478 12.5297 15.8613 12.5476 15.638 12.7893L13.1439 15.4643V8.87023C13.1439 8.53796 12.8721 8.26636 12.5401 8.26636C12.208 8.26636 11.9362 8.53796 11.9362 8.87023V15.4643L9.44823 12.7893C9.21878 12.5478 8.83826 12.5297 8.59679 12.7591C8.35532 12.9886 8.3372 13.3691 8.56666 13.6106L12.0993 17.4089Z" fill="white"/>
</g>
<defs>
<clipPath id="clip0">
<rect width="25" height="25" fill="white"/>
</clipPath>
</defs>
</svg>
