<svg width="24" height="24" viewBox="0 0 46 46" fill="none" xmlns="http://www.w3.org/2000/svg">
<g clip-path="url(#clip0)">
<path d="M45.955 13.5241C45.8472 11.08 45.452 9.39963 44.8858 7.9436C44.3017 6.39805 43.4031 5.01433 42.2257 3.86404C41.0754 2.69584 39.6826 1.7881 38.155 1.21313C36.6905 0.646931 35.0189 0.251682 32.5748 0.143918C30.1124 0.0270286 29.3306 0 23.0853 0C16.8399 0 16.0582 0.0270286 13.6049 0.134792C11.1608 0.242555 9.48044 0.638156 8.02476 1.204C6.47886 1.7881 5.09514 2.68671 3.94484 3.86404C2.77665 5.01433 1.86926 6.40718 1.29394 7.93482C0.727741 9.39963 0.332492 11.0708 0.224729 13.515C0.107839 15.9774 0.0808105 16.7591 0.0808105 23.0045C0.0808105 29.2499 0.107839 30.0316 0.215602 32.4849C0.323366 34.929 0.718966 36.6094 1.28516 38.0654C1.86926 39.6109 2.77665 40.9947 3.94484 42.1449C5.09514 43.3131 6.48799 44.2209 8.01563 44.7959C9.48044 45.3621 11.1516 45.7573 13.5962 45.8651C16.0491 45.9732 16.8312 45.9999 23.0765 45.9999C29.3219 45.9999 30.1036 45.9732 32.5569 45.8651C35.001 45.7573 36.6814 45.3621 38.1371 44.7959C41.2285 43.6006 43.6726 41.1565 44.8679 38.0654C45.4337 36.6006 45.8293 34.929 45.9371 32.4849C46.0448 30.0316 46.0719 29.2499 46.0719 23.0045C46.0719 16.7591 46.0627 15.9774 45.955 13.5241ZM41.8126 32.3051C41.7136 34.5517 41.3363 35.7648 41.0217 36.5735C40.2488 38.5775 38.6583 40.168 36.6543 40.9409C35.8456 41.2555 34.6237 41.6328 32.3859 41.7314C29.9597 41.8396 29.232 41.8662 23.0944 41.8662C16.9568 41.8662 16.22 41.8396 13.8026 41.7314C11.556 41.6328 10.3429 41.2555 9.53414 40.9409C8.53689 40.5724 7.62916 39.9883 6.89236 39.2245C6.12854 38.4785 5.54444 37.5799 5.17587 36.5827C4.86136 35.7739 4.48401 34.5517 4.38538 32.3143C4.27726 29.888 4.25058 29.16 4.25058 23.0224C4.25058 16.8848 4.27726 16.148 4.38538 13.7309C4.48401 11.4843 4.86136 10.2712 5.17587 9.46246C5.54444 8.46486 6.12854 7.55748 6.90149 6.82033C7.64706 6.05651 8.54567 5.47241 9.54327 5.10419C10.352 4.78968 11.5743 4.41233 13.8117 4.31334C16.2379 4.20558 16.966 4.17855 23.1032 4.17855C29.2499 4.17855 29.9776 4.20558 32.3951 4.31334C34.6416 4.41233 35.8547 4.78968 36.6635 5.10419C37.6607 5.47241 38.5685 6.05651 39.3052 6.82033C40.0691 7.56625 40.6532 8.46486 41.0217 9.46246C41.3363 10.2712 41.7136 11.4931 41.8126 13.7309C41.9203 16.1571 41.9474 16.8848 41.9474 23.0224C41.9474 29.16 41.9203 29.8789 41.8126 32.3051Z" fill="white"/>
<path d="M23.0853 11.1877C16.5616 11.1877 11.2686 16.4804 11.2686 23.0045C11.2686 29.5286 16.5616 34.8213 23.0853 34.8213C29.6094 34.8213 34.9021 29.5286 34.9021 23.0045C34.9021 16.4804 29.6094 11.1877 23.0853 11.1877ZM23.0853 30.6697C18.8531 30.6697 15.4201 27.2371 15.4201 23.0045C15.4201 18.7719 18.8531 15.3393 23.0853 15.3393C27.3179 15.3393 30.7506 18.7719 30.7506 23.0045C30.7506 27.2371 27.3179 30.6697 23.0853 30.6697Z" fill="white"/>
<path d="M38.1283 10.7205C38.1283 12.2439 36.8931 13.4791 35.3693 13.4791C33.8458 13.4791 32.6106 12.2439 32.6106 10.7205C32.6106 9.19668 33.8458 7.96179 35.3693 7.96179C36.8931 7.96179 38.1283 9.19668 38.1283 10.7205Z" fill="white"/>
</g>
<defs>
<clipPath id="clip0">
<rect width="46" height="46" fill="white"/>
</clipPath>
</defs>
</svg>
