<svg width="24" height="24" viewBox="0 0 46 46" fill="none" xmlns="http://www.w3.org/2000/svg">
<path d="M0.906558 37.557C5.16539 40.2595 10.1219 41.6874 15.2394 41.6874C22.7336 41.6874 29.601 38.8086 34.5786 33.5818C39.3415 28.5793 41.9616 21.8576 41.8312 15.0362C43.6367 13.4913 45.7604 10.5416 45.7604 7.66658C45.7604 6.5645 44.5644 5.86491 43.5946 6.4265C41.8983 7.42316 40.3516 7.68383 38.7607 7.23725C35.512 4.07091 30.6762 3.40391 26.6014 5.60041C23.0402 7.51708 21.0603 11.0246 21.2386 14.8579C15.2221 14.1238 9.66381 11.107 5.78831 6.41883C5.15198 5.65408 3.94448 5.74416 3.43848 6.6105C1.57164 9.8075 1.59081 13.5124 3.21423 16.5043C2.44181 16.6404 1.96456 17.2902 1.96456 17.9936C1.96456 21.0008 3.31773 23.7647 5.49697 25.6507C5.09064 26.0417 4.95648 26.6224 5.12898 27.1399C6.08731 30.0187 8.25698 32.2689 10.9691 33.3959C8.01931 34.8047 4.75714 35.2742 1.85339 34.9177C0.350725 34.7146 -0.391025 36.7347 0.906558 37.557ZM15.6323 33.8885C16.7076 33.0624 16.1364 31.3412 14.7871 31.3125C12.4104 31.2627 10.2465 30.0916 8.89906 28.2497C9.54881 28.2075 10.2216 28.1078 10.8617 27.9353C12.3203 27.5405 12.2513 25.436 10.7697 25.1389C8.08064 24.5984 5.97039 22.6396 5.17881 20.1172C5.90139 20.2955 6.63739 20.3952 7.37147 20.4086C8.82623 20.4162 9.37631 18.5513 8.18989 17.7712C5.51614 16.0098 4.37573 12.8991 5.13089 9.97425C9.79989 14.7046 16.1345 17.5547 22.8351 17.8767C23.7954 17.9361 24.5161 17.0333 24.3052 16.1191C23.3948 12.1727 25.599 9.40691 27.9661 8.13233C30.3082 6.86733 34.0687 6.4725 36.9514 9.497C37.8081 10.3997 40.6985 10.4342 42.1686 10.0912C41.5092 11.3332 40.4953 12.5119 39.5466 13.1751C39.1421 13.4587 38.9102 13.9302 38.9351 14.4228C39.2437 20.7191 36.8977 26.9789 32.499 31.5962C28.0676 36.2479 21.9401 38.8105 15.2413 38.8105C12.5771 38.8105 9.96472 38.3773 7.49606 37.5417C10.4477 36.9705 13.2518 35.7208 15.6323 33.8885Z" fill="white"/>
</svg>
